PathFileType  4	(X/Y/Z) /Users/kristensteudel/Documents/NMBL_Research/BertecForceProcessing/anc_files/
DataRate	CameraRate	NumFrames	NumMarkers	Units	OrigDataRate	OrigDataStartFrame	OrigNumFrames
  200.0		  200.0		    7		     46		 mm	  200.0	      80	    636
Frame#	Time	r_knee			r_shank_antsup			r_ankle			r_calc			r_5meta			r_toe			L_knee			L_shank_antsup			L_ankle			L_calc			L_5meta			L_toe			r_sh2			r_sh3			r_sh4			L_sh2			L_sh3			r_thigh1			r_thigh2			r_thigh3			r_thigh4			r_thigh5			L_thigh1			L_thigh2			L_thigh3			L_thigh4			r.ASIS			r.PSIS			L.ASIS			L.PSIS			C7			R_Shoulder			L_Shoulder			Sternum			R_humerus			R_elbow_med			R_elbow_lat			R_forearm			R_wrist_radius			R_wrist_ulna			L_humerus			L_elbow_med			L_elbow_lat			L_forearm			L_wrist_radius			L_wrist_ulna			
		X1	Y1	Z1	X2	Y2	Z2	X3	Y3	Z3	X4	Y4	Z4	X5	Y5	Z5	X6	Y6	Z6	X7	Y7	Z7	X8	Y8	Z8	X9	Y9	Z9	X10	Y10	Z10	X11	Y11	Z11	X12	Y12	Z12	X13	Y13	Z13	X14	Y14	Z14	X15	Y15	Z15	X16	Y16	Z16	X17	Y17	Z17	X18	Y18	Z18	X19	Y19	Z19	X20	Y20	Z20	X21	Y21	Z21	X22	Y22	Z22	X23	Y23	Z23	X24	Y24	Z24	X25	Y25	Z25	X26	Y26	Z26	X27	Y27	Z27	X28	Y28	Z28	X29	Y29	Z29	X30	Y30	Z30	X31	Y31	Z31	X32	Y32	Z32	X33	Y33	Z33	X34	Y34	Z34	X35	Y35	Z35	X36	Y36	Z36	X37	Y37	Z37	X38	Y38	Z38	X39	Y39	Z39	X40	Y40	Z40	X41	Y41	Z41	X42	Y42	Z42	X43	Y43	Z43	X44	Y44	Z44	X45	Y45	Z45	X46	Y46	Z46	

80	0.39500	913.590	486.564	-194.968	893.254	359.591	-209.282	697.947	116.174	-291.796	617.047	99.932	-361.942	782.640	34.051	-251.324	835.448	48.019	-308.970	1098.724	568.154	-494.852	1003.094	511.194	-500.692	688.929	533.585	-479.990	649.661	585.168	-428.924	645.489	377.455	-511.776	657.989	342.402	-444.322	834.343	260.624	-240.074	829.240	387.496	-183.684	763.813	301.067	-224.521	998.913	598.802	-525.135	877.802	586.112	-510.503	940.682	711.749	-136.414	959.118	602.737	-169.800	920.164	561.480	-163.922	829.472	686.584	-136.935	856.833	578.434	-172.673	1061.319	790.484	-474.122	1134.297	671.803	-463.600	973.281	738.965	-534.603	1046.486	621.348	-509.070	891.586	975.377	-172.975	690.111	1019.937	-281.098	914.840	961.228	-440.693	704.169	1014.836	-384.757	813.370	1508.238	-316.781	859.384	1449.117	-104.825	884.350	1475.355	-508.810	966.067	1391.159	-310.445	811.192	1213.939	-56.748	684.943	1109.236	-107.828	699.575	1128.983	-19.425	872.041	1093.484	-59.387	971.153	1070.806	-97.041	958.600	1023.442	-79.132	751.162	1274.521	-602.947	609.225	1215.149	-561.524	652.454	1247.840	-641.927	769.475	1123.553	-615.708	850.003	1068.308	-535.308	821.210	1040.336	-598.387
81	0.40000	895.554	480.443	-196.405	869.880	354.598	-209.236	664.898	120.398	-290.813	582.967	106.880	-359.918	746.695	34.224	-250.787	799.417	47.931	-308.601	1113.758	582.469	-493.426	1021.315	518.198	-497.815	705.579	518.260	-482.436	661.188	566.378	-432.048	676.410	359.946	-515.978	690.131	325.025	-447.554	806.701	258.388	-238.970	807.377	386.178	-183.989	737.776	302.372	-224.442	1012.251	604.767	-523.212	892.333	583.946	-509.529	933.632	705.751	-137.736	947.278	595.871	-171.392	906.611	556.363	-165.458	821.334	685.174	-138.214	843.701	575.871	-174.208	1065.138	802.804	-471.093	1143.914	688.064	-459.648	981.030	747.578	-533.552	1059.445	633.432	-507.487	891.838	974.270	-172.065	691.108	1020.339	-280.734	915.680	960.145	-441.161	704.459	1015.174	-384.860	812.809	1509.019	-317.478	863.827	1450.251	-106.450	880.807	1476.399	-509.589	965.591	1391.858	-313.083	820.059	1214.659	-56.462	694.591	1107.153	-103.567	711.529	1126.953	-15.174	884.069	1098.775	-60.020	982.937	1079.930	-100.017	973.216	1032.363	-81.800	743.782	1279.252	-603.365	601.598	1220.666	-560.416	644.233	1254.052	-640.761	760.241	1128.386	-617.088	841.653	1071.857	-538.309	810.705	1044.240	-600.555
82	0.40500	875.896	474.594	-197.782	846.154	350.907	-210.238	631.851	124.661	-289.108	549.081	115.071	-357.393	710.655	34.559	-249.887	763.312	47.723	-307.765	1127.274	596.189	-490.703	1037.333	523.724	-494.505	723.192	501.628	-484.707	674.285	546.402	-435.329	708.567	341.929	-518.592	724.103	308.232	-449.267	778.892	257.339	-238.392	785.424	384.821	-183.841	712.086	304.539	-223.686	1024.002	610.324	-520.949	905.636	582.953	-509.956	926.488	700.030	-139.594	934.402	589.302	-172.618	892.034	552.074	-166.818	813.269	684.661	-139.089	830.146	574.342	-175.274	1068.414	815.276	-468.258	1151.750	703.586	-455.979	987.877	756.183	-532.449	1071.164	645.805	-505.810	892.938	973.098	-171.482	692.398	1020.939	-280.507	916.390	960.005	-442.327	705.268	1015.745	-384.342	811.973	1510.155	-316.670	868.079	1452.203	-108.754	877.070	1478.353	-510.366	965.111	1393.070	-315.803	828.221	1216.151	-55.965	703.884	1105.939	-99.314	723.626	1126.054	-12.153	894.687	1105.444	-60.908	994.079	1091.099	-103.426	986.523	1042.725	-84.579	736.555	1284.971	-604.566	594.491	1226.874	-559.514	636.456	1260.979	-639.573	751.165	1133.962	-618.168	833.273	1076.571	-541.113	801.074	1049.136	-602.461
83	0.41000	855.371	470.144	-198.937	822.294	348.856	-211.515	599.333	129.820	-286.832	515.790	124.721	-354.754	674.247	34.786	-248.780	726.658	47.482	-307.047	1139.548	609.490	-488.414	1055.447	532.038	-491.739	742.330	483.748	-485.960	688.800	525.462	-437.830	742.314	324.502	-519.946	759.367	292.192	-450.512	750.373	257.867	-239.157	763.137	384.842	-184.131	686.063	308.177	-222.941	1036.124	616.219	-517.636	918.734	579.050	-509.205	919.087	694.533	-141.391	920.976	583.298	-173.646	876.678	548.645	-168.335	805.342	685.166	-139.848	816.076	573.862	-176.221	1070.979	826.831	-465.848	1158.246	718.666	-452.757	994.004	764.688	-531.279	1080.875	657.179	-504.001	895.124	971.572	-170.847	694.146	1021.745	-279.705	916.892	961.488	-443.588	705.888	1016.586	-383.846	810.700	1511.619	-316.053	872.086	1454.847	-111.317	872.798	1480.869	-511.132	964.174	1394.893	-318.805	835.467	1218.419	-55.366	713.065	1105.634	-95.265	734.760	1126.478	-8.352	904.838	1112.902	-61.815	1003.488	1102.365	-106.879	998.560	1053.968	-87.399	729.745	1291.016	-604.644	586.963	1234.067	-558.068	628.667	1268.323	-638.416	742.490	1140.187	-618.986	825.530	1081.778	-542.877	791.945	1054.853	-603.954
84	0.41500	833.950	467.790	-198.967	798.322	348.197	-211.511	567.342	135.711	-284.687	484.334	134.979	-352.195	638.369	35.709	-247.751	690.295	47.526	-306.543	1150.810	623.660	-486.157	1071.685	538.771	-489.540	763.058	468.400	-488.776	704.910	503.665	-441.040	776.425	307.317	-520.325	795.400	276.978	-450.535	722.638	260.091	-238.300	740.850	387.518	-184.858	660.324	312.799	-221.929	1045.745	620.853	-515.523	933.632	573.893	-511.156	911.667	689.610	-143.044	907.151	578.057	-174.796	861.146	546.078	-169.816	797.625	686.300	-140.351	801.918	574.461	-177.122	1073.118	838.282	-464.063	1164.300	733.234	-450.048	999.465	773.055	-530.237	1090.016	668.923	-502.309	898.060	971.299	-171.736	696.477	1022.757	-278.259	917.273	965.145	-444.652	706.893	1018.086	-382.684	809.152	1513.131	-315.584	875.703	1458.006	-113.962	868.288	1483.980	-511.730	963.560	1397.370	-321.796	842.326	1221.422	-54.560	721.650	1106.333	-91.139	745.369	1128.307	-4.644	914.077	1121.167	-62.428	1011.759	1114.318	-110.142	1009.201	1065.978	-89.831	722.907	1297.258	-604.753	580.772	1241.100	-556.167	621.373	1275.836	-637.185	734.166	1147.087	-619.505	817.245	1087.871	-544.592	783.469	1061.258	-605.008
85	0.42000	813.173	467.953	-199.360	774.176	349.934	-211.174	536.118	142.179	-282.772	453.501	146.381	-349.697	602.403	37.095	-247.063	653.931	47.480	-306.682	1159.922	636.123	-484.798	1087.235	545.286	-488.027	785.724	449.609	-487.991	723.258	481.721	-444.243	812.357	291.881	-520.587	832.531	263.323	-449.544	695.605	263.801	-236.204	717.800	391.407	-185.668	635.228	318.705	-220.568	1054.743	625.523	-512.284	946.301	568.358	-508.757	904.049	685.331	-145.112	893.219	573.921	-176.694	845.395	544.161	-171.272	790.094	688.252	-140.566	787.583	575.783	-177.712	1075.067	849.106	-462.776	1169.283	746.848	-447.805	1004.241	781.324	-529.564	1097.639	679.705	-500.857	901.747	971.585	-172.691	699.513	1023.905	-276.504	917.794	970.407	-445.762	708.298	1019.698	-381.241	807.485	1515.181	-315.164	878.660	1461.626	-116.280	863.347	1487.554	-512.112	963.303	1400.341	-325.029	848.780	1225.403	-53.475	730.089	1107.754	-87.018	755.107	1131.012	-1.431	922.414	1130.025	-63.391	1018.963	1127.070	-113.295	1018.953	1078.826	-92.290	716.184	1303.811	-604.722	574.337	1248.826	-554.202	614.082	1283.435	-635.907	725.943	1154.374	-620.897	810.677	1095.418	-546.289	775.351	1068.249	-605.648
86	0.42500	792.773	470.135	-199.946	750.050	353.590	-210.028	506.071	149.047	-280.690	424.610	158.361	-347.222	566.895	38.731	-246.332	618.270	47.675	-305.954	1168.251	647.797	-483.965	1101.612	551.464	-487.340	808.134	431.482	-488.781	743.370	459.255	-444.410	849.017	276.580	-519.366	870.589	250.767	-447.982	668.886	268.914	-234.359	694.664	396.361	-185.017	610.032	325.735	-219.348	1060.619	627.870	-510.645	958.487	562.365	-507.484	896.337	682.138	-147.808	878.279	571.391	-177.802	829.966	543.765	-172.495	782.833	691.107	-140.498	773.505	578.226	-178.073	1077.019	859.259	-461.921	1173.810	759.792	-446.249	1008.560	789.253	-529.245	1104.917	690.175	-500.114	905.917	971.905	-173.721	703.146	1025.139	-274.634	918.380	976.366	-446.958	709.707	1021.278	-379.438	805.558	1517.104	-314.885	881.237	1465.465	-118.503	858.186	1491.685	-512.274	962.853	1403.878	-328.059	855.089	1229.844	-52.116	738.071	1110.097	-83.176	763.893	1134.708	1.704	929.886	1139.198	-63.790	1025.213	1139.948	-116.030	1027.384	1092.056	-95.647	709.674	1310.458	-604.604	567.993	1256.382	-552.287	607.163	1291.170	-634.370	718.430	1162.240	-620.865	805.438	1103.988	-547.543	767.946	1075.800	-606.047
